<svg width="225" height="43" viewBox="0 0 225 43" fill="none" xmlns="http://www.w3.org/2000/svg">
<path d="M19.2311 6.63062C17.3131 3.25746 14.2937 1.76874 10.5527 1.76874C6.07105 1.76874 3.41245 3.93586 3.41245 7.13942C3.41245 15.5629 21.1681 11.9071 21.1681 24.6271C21.1681 30.5443 17.0282 34.577 9.75509 34.577C6.07104 34.577 2.80478 33.4652 0.715881 32.0707V26.097H1.00073C3.46942 31.4111 6.166 34.0493 10.8375 34.0493C16.1927 34.0493 18.5285 31.0908 18.5285 27.1523C18.5285 16.3355 1.09568 20.1233 1.09568 9.06156C1.09568 4.01124 5.00761 1.2411 12.1478 1.2411C15.6989 1.2411 17.6549 1.88181 19.421 2.2587V6.61178H19.2311V6.63062Z" fill="white"/>
<path d="M40.8416 31.0154C39.7212 33.7478 37.2905 34.3508 35.2965 34.3508C31.2897 34.3508 28.6311 32.0895 28.6311 28.4714V9.45729C27.3777 9.4196 26.1054 9.4196 24.8141 9.4196V8.66582C29.1438 8.47738 31.5175 6.66831 32.6379 3.48359H32.8658V8.60929H40.006L39.9681 9.85302C37.5374 9.72111 35.2206 9.57036 32.8848 9.53267V27.6234C32.8848 31.5053 34.423 33.4463 37.1196 33.4463C38.6198 33.4463 40.006 32.4664 40.5757 30.8081L40.8416 31.0154Z" fill="white"/>
<path d="M40.8986 21.6685C40.8986 13.9988 46.3108 8.402 53.6599 8.402C60.933 8.402 66.0603 13.7161 66.0603 21.122C66.0603 28.886 60.7051 34.577 53.2991 34.577C46.0639 34.577 40.8986 29.2063 40.8986 21.6685ZM62.2054 24.0241C62.2054 15.8833 57.268 9.04271 51.6659 9.04271C47.2792 9.04271 44.7726 12.7928 44.7726 18.7476C44.7726 27.0203 49.3492 34.0493 55.0272 34.0493C59.3948 34.0682 62.2054 30.1862 62.2054 24.0241Z" fill="white"/>
<path d="M68.9088 21.6685C68.9088 13.8104 74.1311 8.402 82.5626 8.402C85.8289 8.402 89.0002 9.13693 90.9941 9.73996V16.3921H90.7663C88.8483 11.304 84.7464 9.04271 80.5497 9.04271C74.8147 9.04271 72.7638 13.1508 72.7638 18.6157C72.7638 26.1158 77.2834 32.9564 84.2717 32.9564C87.386 32.9564 90.2915 31.3357 91.7347 29.0744L92.1145 29.3948C89.6458 32.9187 85.9238 34.577 81.9549 34.577C74.169 34.577 68.9088 29.489 68.9088 21.6685Z" fill="white"/>
<path d="M116.118 31.0531C117.105 32.4852 118.074 33.5594 118.966 34.0116L118.928 34.1059H114.826C113.706 34.1059 112.871 33.3144 112.035 32.033L105.654 22.0831H107.99L109.718 21.9512C111.902 21.3105 113.117 18.4838 113.117 15.7137C113.117 12.3405 111.351 9.28769 107.895 9.28769C104.686 9.28769 101.609 11.7375 101.458 15.8644V30.6196C101.458 32.3345 101.932 33.5782 102.768 34.0493L102.73 34.1436H95.9695L95.9315 34.0493C96.824 33.5782 97.2418 32.3345 97.2418 30.6196V6.3668C97.2418 4.61426 96.7291 3.54012 95.7416 3.40821L95.7796 3.31399L101.458 1.18456L101.268 14.8657H101.306C102.008 10.1922 106.015 8.38315 109.699 8.38315C114.694 8.38315 117.58 11.436 117.58 15.0353C117.58 18.3142 114.978 21.612 110.022 22.2527L116.118 31.0531Z" fill="white"/>
<path d="M140.406 31.3357V34.1059H120.922L120.884 34.0117C121.72 33.5405 122.195 32.2968 122.195 30.582V5.25497C122.195 3.54013 121.72 2.29639 120.884 1.82528L120.922 1.73106H139.475V4.52004L139.38 4.55773C138.545 2.56021 136.779 1.97603 135.412 2.01372H126.467V15.3368H135.507C136.722 15.2425 137.88 14.9599 138.45 13.9046L138.545 13.9423V16.9009L138.45 16.9385C137.899 15.8833 136.722 15.6383 135.507 15.5441H126.467V33.8044H136.342C137.69 33.842 139.456 33.2579 140.311 31.2604L140.406 31.3357Z" fill="white"/>
<path d="M167.714 30.5443C167.714 32.2968 168.188 33.5594 169.024 34.0117L168.986 34.1059H167.41L163.441 34.0682L163.669 22.46H163.631C162.567 29.9601 158.883 34.5393 153.509 34.5393C148.002 34.5393 143.957 29.734 143.957 23.4399C143.957 14.828 149.407 8.402 156.642 8.402C159.624 8.402 162.795 9.45729 163.688 11.549H163.783L163.593 5.12306C163.555 3.37052 163.042 2.2587 162.055 2.07026L162.092 1.97603L163.593 1.50492L167.733 0.355408V30.5443H167.714ZM163.479 19.7841V13.8669C162.586 11.0968 159.092 9.00502 155.465 9.00502C150.471 9.00502 147.869 13.2639 147.869 20.6132C147.869 27.7364 150.907 33.7855 154.667 33.7855C159.795 33.7855 163.479 26.4739 163.479 19.7841Z" fill="white"/>
<path d="M195.211 30.5443C195.211 32.2968 195.686 33.5594 196.521 34.0117L196.483 34.1059H194.907L190.938 34.0682L191.166 22.46H191.128C190.065 29.9601 186.381 34.5393 181.006 34.5393C175.499 34.5393 171.455 29.734 171.455 23.4399C171.455 14.828 176.905 8.402 184.14 8.402C187.121 8.402 190.293 9.45729 191.185 11.549H191.28L191.09 5.12306C191.052 3.37052 190.539 2.2587 189.552 2.07026L189.59 1.97603L191.09 1.50492L195.23 0.355408V30.5443H195.211ZM190.976 19.7841V13.8669C190.084 11.0968 186.59 9.00502 182.962 9.00502C177.968 9.00502 175.366 13.2639 175.366 20.6132C175.366 27.7364 178.405 33.7855 182.165 33.7855C187.292 33.7855 190.976 26.4739 190.976 19.7841Z" fill="white"/>
<path d="M224.626 8.76004C223.734 9.23115 222.955 10.3807 222.253 12.0013L213.062 34.1059C211.295 38.0821 208.314 42.9439 202.294 42.9439C197.87 42.9439 196.141 41.0406 195.249 40.1173L197.072 36.7818C197.49 38.6285 200.015 41.3987 204.801 41.3987C208.428 41.3987 210.764 37.969 212.53 34.087H209.966L201.25 11.9824C200.604 10.3618 199.807 9.21231 198.971 8.7412L199.009 8.64697H205.769L205.807 8.7412C204.972 9.21231 204.877 10.3618 205.523 11.9824L213.403 32.0141L221.322 11.9824C221.93 10.3618 221.835 9.21231 220.999 8.7412L221.037 8.64697H224.531L224.626 8.76004Z" fill="white"/>
</svg>
