<svg width="225" height="43" viewBox="0 0 225 43" fill="none" xmlns="http://www.w3.org/2000/svg">
<path d="M19.2311 6.63073C17.3131 3.25757 14.2937 1.76886 10.5527 1.76886C6.07105 1.76886 3.41245 3.93597 3.41245 7.13953C3.41245 15.563 21.1681 11.9072 21.1681 24.6272C21.1681 30.5444 17.0282 34.5771 9.75509 34.5771C6.07104 34.5771 2.80478 33.4653 0.715881 32.0708V26.0971H1.00073C3.46942 31.4112 6.166 34.0495 10.8375 34.0495C16.1927 34.0495 18.5285 31.0909 18.5285 27.1524C18.5285 16.3356 1.09568 20.1234 1.09568 9.06167C1.09568 4.01135 5.00761 1.24121 12.1478 1.24121C15.6989 1.24121 17.6549 1.88192 19.421 2.25881V6.61189H19.2311V6.63073Z" fill="#00336D"/>
<path d="M40.8416 31.0154C39.7212 33.7479 37.2905 34.3509 35.2965 34.3509C31.2897 34.3509 28.6311 32.0896 28.6311 28.4714V9.45734C27.3777 9.41965 26.1054 9.41965 24.8141 9.41965V8.66588C29.1438 8.47743 31.5175 6.66836 32.6379 3.48364H32.8658V8.60934H40.006L39.9681 9.85308C37.5374 9.72117 35.2206 9.57041 32.8848 9.53272V27.6234C32.8848 31.5054 34.423 33.4464 37.1196 33.4464C38.6198 33.4464 40.006 32.4665 40.5757 30.8081L40.8416 31.0154Z" fill="#00336D"/>
<path d="M40.8986 21.6686C40.8986 13.9989 46.3108 8.4021 53.6599 8.4021C60.933 8.4021 66.0603 13.7162 66.0603 21.1221C66.0603 28.8861 60.7051 34.5771 53.2991 34.5771C46.0639 34.5771 40.8986 29.2064 40.8986 21.6686ZM62.2054 24.0242C62.2054 15.8834 57.268 9.04281 51.6659 9.04281C47.2792 9.04281 44.7726 12.7929 44.7726 18.7477C44.7726 27.0204 49.3492 34.0494 55.0272 34.0494C59.3948 34.0683 62.2054 30.1863 62.2054 24.0242Z" fill="#00336D"/>
<path d="M68.9088 21.6686C68.9088 13.8105 74.1311 8.4021 82.5626 8.4021C85.8289 8.4021 89.0002 9.13703 90.9941 9.74006V16.3922H90.7663C88.8483 11.3041 84.7464 9.04281 80.5497 9.04281C74.8147 9.04281 72.7638 13.1509 72.7638 18.6158C72.7638 26.1159 77.2834 32.9565 84.2717 32.9565C87.386 32.9565 90.2915 31.3358 91.7347 29.0745L92.1145 29.3949C89.6458 32.9188 85.9238 34.5771 81.9549 34.5771C74.169 34.5771 68.9088 29.4891 68.9088 21.6686Z" fill="#00336D"/>
<path d="M116.118 31.0531C117.105 32.4853 118.074 33.5594 118.966 34.0117L118.928 34.1059H114.826C113.706 34.1059 112.871 33.3144 112.035 32.033L105.654 22.0831H107.99L109.718 21.9512C111.902 21.3105 113.117 18.4838 113.117 15.7137C113.117 12.3405 111.351 9.2877 107.895 9.2877C104.686 9.2877 101.609 11.7375 101.458 15.8644V30.6196C101.458 32.3345 101.932 33.5782 102.768 34.0493L102.73 34.1436H95.9695L95.9315 34.0493C96.824 33.5782 97.2418 32.3345 97.2418 30.6196V6.3668C97.2418 4.61427 96.7291 3.54013 95.7416 3.40822L95.7796 3.314L101.458 1.18457L101.268 14.8657H101.306C102.008 10.1922 106.015 8.38316 109.699 8.38316C114.694 8.38316 117.58 11.436 117.58 15.0353C117.58 18.3142 114.978 21.612 110.022 22.2527L116.118 31.0531Z" fill="#00336D"/>
<path d="M140.406 31.3359V34.106H120.922L120.884 34.0118C121.72 33.5407 122.195 32.2969 122.195 30.5821V5.25512C122.195 3.54027 121.72 2.29654 120.884 1.82542L120.922 1.7312H139.475V4.52018L139.38 4.55787C138.545 2.56036 136.779 1.97618 135.412 2.01387H126.467V15.3369H135.507C136.722 15.2427 137.88 14.96 138.45 13.9047L138.545 13.9424V16.901L138.45 16.9387C137.899 15.8834 136.722 15.6384 135.507 15.5442H126.467V33.8045H136.342C137.69 33.8422 139.456 33.258 140.311 31.2605L140.406 31.3359Z" fill="#00336D"/>
<path d="M167.714 30.5443C167.714 32.2969 168.188 33.5594 169.024 34.0117L168.986 34.1059H167.41L163.441 34.0682L163.669 22.46H163.631C162.567 29.9601 158.883 34.5394 153.509 34.5394C148.002 34.5394 143.957 29.734 143.957 23.44C143.957 14.828 149.407 8.40206 156.642 8.40206C159.624 8.40206 162.795 9.45735 163.688 11.5491H163.783L163.593 5.12312C163.555 3.37058 163.042 2.25876 162.055 2.07032L162.092 1.97609L163.593 1.50498L167.733 0.355469V30.5443H167.714ZM163.479 19.7841V13.867C162.586 11.0968 159.092 9.00509 155.465 9.00509C150.471 9.00509 147.869 13.2639 147.869 20.6133C147.869 27.7365 150.907 33.7856 154.667 33.7856C159.795 33.7856 163.479 26.4739 163.479 19.7841Z" fill="#00336D"/>
<path d="M195.211 30.5443C195.211 32.2969 195.686 33.5594 196.521 34.0117L196.483 34.1059H194.907L190.938 34.0682L191.166 22.46H191.128C190.065 29.9601 186.381 34.5394 181.006 34.5394C175.499 34.5394 171.455 29.734 171.455 23.44C171.455 14.828 176.905 8.40206 184.14 8.40206C187.121 8.40206 190.293 9.45735 191.185 11.5491H191.28L191.09 5.12312C191.052 3.37058 190.539 2.25876 189.552 2.07032L189.59 1.97609L191.09 1.50498L195.23 0.355469V30.5443H195.211ZM190.976 19.7841V13.867C190.084 11.0968 186.59 9.00509 182.962 9.00509C177.968 9.00509 175.366 13.2639 175.366 20.6133C175.366 27.7365 178.405 33.7856 182.165 33.7856C187.292 33.7856 190.976 26.4739 190.976 19.7841Z" fill="#00336D"/>
<path d="M224.626 8.76004C223.734 9.23115 222.955 10.3807 222.253 12.0013L213.062 34.1059C211.295 38.0821 208.314 42.9439 202.294 42.9439C197.87 42.9439 196.141 41.0406 195.249 40.1173L197.072 36.7818C197.49 38.6285 200.015 41.3987 204.801 41.3987C208.428 41.3987 210.764 37.969 212.53 34.087H209.966L201.25 11.9824C200.604 10.3618 199.807 9.21231 198.971 8.7412L199.009 8.64697H205.769L205.807 8.7412C204.972 9.21231 204.877 10.3618 205.523 11.9824L213.403 32.0141L221.322 11.9824C221.93 10.3618 221.835 9.21231 220.999 8.7412L221.037 8.64697H224.531L224.626 8.76004Z" fill="#00336D"/>
</svg>
